<?xml version="1.0" encoding="UTF-8" standalone="no"?>
<svg width="17px" height="12px" viewBox="0 0 17 12" version="1.1" xmlns="http://www.w3.org/2000/svg" xmlns:xlink="http://www.w3.org/1999/xlink" xmlns:sketch="http://www.bohemiancoding.com/sketch/ns">
    <!-- Generator: Sketch 3.3 (11970) - http://www.bohemiancoding.com/sketch -->
    <title>Untitled 4</title>
    <desc>Created with Sketch.</desc>
    <defs></defs>
    <g id="Page-1" stroke="none" stroke-width="1" fill="none" fill-rule="evenodd" sketch:type="MSPage">
        <path d="M11.9466667,1.73275 L11.9210667,1.70714286 C11.3578667,1.20353571 10.7093333,0.964535714 9.94986667,0.998678571 L9.92426667,0.938928571 L9.94133333,0.938928571 C10.624,0.785285714 11.0336,0.631642857 11.1530667,0.460928571 C11.1957333,0.324357143 11.1445333,0.256071429 10.9909333,0.230464286 C10.6496,0.273142857 10.3338667,0.349964286 10.0522667,0.452392857 C10.4106667,0.230464286 10.5472,0.0768214286 10.4704,0 C10.112,0.00853571429 9.728,0.17925 9.32693333,0.520678571 C9.48053333,0.281678571 9.53173333,0.145107143 9.4976,0.128035714 C9.30986667,0.256071429 9.1392,0.392642857 8.99413333,0.53775 C8.69546667,0.862107143 8.448,1.16085714 8.26026667,1.434 L8.25173333,1.45960714 C7.77386667,2.20221429 7.44106667,2.95335714 7.23626667,3.72157143 L7.168,3.78132143 L7.15093333,3.78985714 C6.8608,3.43989286 6.51946667,3.14967857 6.10133333,2.91921429 C5.61493333,2.61192857 5.0432,2.32171429 4.3776,2.04003571 C3.6608,1.68153571 2.92693333,1.38278571 2.18453333,1.15232143 C2.18453333,1.94614286 2.5856,2.58632143 3.38773333,3.04725 L3.38773333,3.05578571 C3.10613333,3.05578571 2.83306667,3.09846429 2.56853333,3.17528571 C2.61973333,3.90935714 3.16586667,4.4215 4.1984,4.70317857 L4.18986667,4.72025 C3.7888,4.69464286 3.456,4.83121429 3.19146667,5.11289286 C3.5328,5.75307143 4.13013333,6.05182143 5.00053333,6.03475 C4.82986667,6.12010714 4.69333333,6.214 4.608,6.31642857 C4.44586667,6.47860714 4.39466667,6.66639286 4.44586667,6.87978571 C4.6336,7.20414286 4.97493333,7.34925 5.46133333,7.33217857 L5.49546667,7.36632143 L5.4784,7.37485714 C4.62506667,8.21989286 3.60106667,8.604 2.38933333,8.52717857 L2.37226667,8.53571429 C1.6384,8.52717857 0.8448,8.18575 0,7.51142857 C0.853333333,8.69789286 1.98826667,9.55146429 3.39626667,10.0892143 C5.00906667,10.6013571 6.62186667,10.6355 8.22613333,10.2001786 L8.25173333,10.2001786 C9.81333333,9.76485714 11.136,8.87714286 12.2282667,7.53703571 C12.7317333,6.82857143 13.0474667,6.16278571 13.1754667,5.51407143 C13.9861333,5.53967857 14.5749333,5.31775 14.9418667,4.83975 L14.9333333,4.82267857 C14.6602667,4.91657143 14.1312,4.89096429 13.3376,4.73732143 L13.3376,4.65196429 C13.3376,4.64342857 13.3376,4.64342857 13.3461333,4.65196429 C14.208,4.55807143 14.7114667,4.29346429 14.8821333,3.84960714 C14.2762667,4.07153571 13.6874667,4.08007143 13.0986667,3.86667857 C12.9962667,3.08992857 12.6122667,2.37292857 11.9466667,1.73275" id="Image" fill="#828C8E" sketch:type="MSShapeGroup"></path>
    </g>
</svg>