<?xml version="1.0" encoding="UTF-8" standalone="no"?>
<svg width="11px" height="12px" viewBox="0 0 11 12" version="1.1" xmlns="http://www.w3.org/2000/svg" xmlns:xlink="http://www.w3.org/1999/xlink" xmlns:sketch="http://www.bohemiancoding.com/sketch/ns">
    <!-- Generator: Sketch 3.3 (11970) - http://www.bohemiancoding.com/sketch -->
    <title>Untitled 4</title>
    <desc>Created with Sketch.</desc>
    <defs></defs>
    <g id="Page-1" stroke="none" stroke-width="1" fill="none" fill-rule="evenodd" sketch:type="MSPage">
        <path d="M10.2229333,9.95264286 C10.2229333,4.56660714 5.54666667,0.0170714286 0,0 L0,1.99735714 C4.39466667,2.01442857 8.14933333,5.68478571 8.15786667,9.95264286 L10.2229333,9.95264286 L10.2229333,9.95264286 Z M6.71573333,9.95264286 C6.71573333,6.64932143 3.4048,3.42282143 0,3.42282143 L0,5.42017857 C2.1248,5.42017857 4.65066667,7.89553571 4.65066667,9.95264286 L6.71573333,9.95264286 L6.71573333,9.95264286 Z M2.03946667,8.97957143 C2.03946667,8.43328571 1.57013333,7.98089286 1.00693333,7.98089286 C0.4608,7.98089286 0,8.44182143 0,8.97957143 C0,9.50878571 0.4608,9.95264286 1.00693333,9.95264286 C1.5616,9.95264286 2.03946667,9.50878571 2.03946667,8.97957143 L2.03946667,8.97957143 Z" id="Image" fill="#828C8E" sketch:type="MSShapeGroup"></path>
    </g>
</svg>