<?xml version="1.0" encoding="UTF-8" standalone="no"?>
<svg width="12px" height="12px" viewBox="0 0 12 12" version="1.1" xmlns="http://www.w3.org/2000/svg" xmlns:xlink="http://www.w3.org/1999/xlink" xmlns:sketch="http://www.bohemiancoding.com/sketch/ns">
    <!-- Generator: Sketch 3.3 (11970) - http://www.bohemiancoding.com/sketch -->
    <title>Slice 1</title>
    <desc>Created with Sketch.</desc>
    <defs></defs>
    <g id="Page-1" stroke="none" stroke-width="1" fill="none" fill-rule="evenodd" sketch:type="MSPage">
        <path d="M7.55456,4.50771521 C7.55456,6.1609115 6.20117333,7.50551115 4.53717333,7.50551115 C2.87317333,7.50551115 1.50869333,6.1609115 1.50869333,4.50771521 C1.50869333,2.84349762 2.86208,1.49889797 4.53717333,1.49889797 C6.20117333,1.49889797 7.55456,2.85451893 7.55456,4.50771521 L7.55456,4.50771521 Z M8.27562667,7.0536375 C8.79701333,6.31520982 9.07434667,5.41146252 9.07434667,4.50771521 C9.07434667,2.01689947 7.04426667,0 4.53717333,0 C2.03008,0 0,2.01689947 0,4.50771521 C0,6.99853096 2.03008,9.01543043 4.53717333,9.01543043 C5.44682667,9.01543043 6.35648,8.72887641 7.11082667,8.22189621 L9.92853333,11.0213086 L11.0933333,9.86407119 L8.27562667,7.0536375 Z" id="Icon" fill="#3C3D41" sketch:type="MSShapeGroup"></path>
    </g>
</svg>