<?xml version="1.0" encoding="UTF-8" standalone="no"?>
<svg width="12px" height="11px" viewBox="0 0 12 11" version="1.1" xmlns="http://www.w3.org/2000/svg" xmlns:xlink="http://www.w3.org/1999/xlink" xmlns:sketch="http://www.bohemiancoding.com/sketch/ns">
    <!-- Generator: Sketch 3.3 (11970) - http://www.bohemiancoding.com/sketch -->
    <title>Untitled</title>
    <desc>Created with Sketch.</desc>
    <defs></defs>
    <g id="Page-1" stroke="none" stroke-width="1" fill="none" fill-rule="evenodd" sketch:type="MSPage">
        <path d="M8.80276817,0 C7.64013841,0 6.56055363,0.61875 5.99307958,1.6225 C5.42560554,0.61875 4.35986159,0 3.19723183,0 C1.4532872,0 0,1.38875 0,3.135 C0,3.575 0.0968858131,3.96 0.249134948,4.3725 C0.415224913,4.785 0.664359862,5.1975 0.899653979,5.5825 C2.18685121,7.645 4.09688581,9.50125 5.99307958,11 C7.90311419,9.50125 9.81314879,7.645 11.100346,5.5825 C11.3356401,5.1975 11.5847751,4.785 11.7370242,4.3725 C11.8892734,3.96 12,3.575 12,3.135 C12,1.38875 10.5467128,0 8.80276817,0 Z" id="Like-Icon" fill="#B8C6C7" sketch:type="MSShapeGroup"></path>
    </g>
</svg>