<?xml version="1.0" encoding="UTF-8" standalone="no"?>
<svg width="18px" height="15px" viewBox="0 0 18 15" version="1.1" xmlns="http://www.w3.org/2000/svg" xmlns:xlink="http://www.w3.org/1999/xlink" xmlns:sketch="http://www.bohemiancoding.com/sketch/ns">
    <!-- Generator: Sketch 3.3 (11970) - http://www.bohemiancoding.com/sketch -->
    <title>Untitled 4</title>
    <desc>Created with Sketch.</desc>
    <defs></defs>
    <g id="Page-1" stroke="none" stroke-width="1" fill="none" fill-rule="evenodd" sketch:type="MSPage">
        <path d="M15.385052,9.06542101 L13.0072008,11.1005155 L2.36010601,11.1005155 L2.36010601,4.92122855 L3.35383486,4.92122855 C4.13462181,3.90368129 5.16384098,3.08964349 6.26404077,2.46061427 L1.18892559,2.46061427 C0.53235474,2.46061427 0,3.01564005 0,3.70017184 L0,12.3215722 C0,13.006104 0.53235474,13.5611298 1.18892559,13.5611298 L14.1961264,13.5611298 C14.8526972,13.5611298 15.385052,13.006104 15.385052,12.3215722 L15.385052,9.06542101 Z M11.8360204,0 L11.8360204,2.59012029 C11.0197431,2.70112544 10.221211,2.92313576 9.44042406,3.16364692 C6.79639551,4.01468645 3.5490316,5.75376721 3.5490316,9.10242273 L3.5490316,9.3429339 C4.68472171,7.47434712 8.3224791,7.25233681 10.2389562,7.25233681 C10.7713109,7.25233681 11.3036656,7.25233681 11.8360204,7.30783939 L11.8360204,9.86095796 L17.745158,4.93972941 L11.8360204,0 Z" id="Share-Icon" fill="#838D8F" sketch:type="MSShapeGroup"></path>
    </g>
</svg>