<?xml version="1.0" encoding="UTF-8" standalone="no"?>
<svg width="19px" height="19px" viewBox="0 0 19 19" version="1.1" xmlns="http://www.w3.org/2000/svg" xmlns:xlink="http://www.w3.org/1999/xlink" xmlns:sketch="http://www.bohemiancoding.com/sketch/ns">
    <!-- Generator: Sketch 3.3 (11970) - http://www.bohemiancoding.com/sketch -->
    <title>Slice 1</title>
    <desc>Created with Sketch.</desc>
    <defs></defs>
    <g id="Page-1" stroke="none" stroke-width="1" fill="none" fill-rule="evenodd" sketch:type="MSPage">
        <path d="M5.59424844,12.4074565 C9.79924844,16.6124565 13.5642484,17.8734565 14.0852484,17.9494565 C14.6112484,18.0264565 15.4702484,18.1894565 16.7132484,16.9494565 C18.1702484,15.4924565 18.3162484,14.7234565 17.5172484,13.9204565 C16.7132484,13.1204565 14.7222484,11.9074565 14.1792484,11.5904565 C13.6362484,11.2784565 13.1752484,11.3814565 12.7862484,11.6504565 C12.3932484,11.9244565 11.9442484,12.2704565 11.5252484,12.5734565 C11.1062484,12.8774565 10.5852484,13.0054565 10.0252484,12.6504565 C9.46524844,12.2914565 8.51724844,11.6294565 7.44424844,10.5564565 C6.37124844,9.4844565 5.70924844,8.5354565 5.35424844,7.9754565 C4.99524844,7.4154565 5.12424844,6.8944565 5.42724844,6.4754565 C5.73124844,6.0564565 6.07624844,5.6084565 6.35024844,5.2144565 C6.61924844,4.8264565 6.72224844,4.3644565 6.41024844,3.8214565 C6.09424844,3.2784565 4.88024844,1.2874565 4.08124844,0.484456498 C3.27724844,-0.319543502 2.51224844,-0.169543502 1.05524844,1.2874565 C-0.192751561,2.5314565 -0.021751561,3.3904565 0.051248439,3.9154565 C0.128248439,4.4374565 1.39324844,8.2014565 5.59424844,12.4074565" id="Icon" fill="#FFFFFF" sketch:type="MSShapeGroup"></path>
    </g>
</svg>