<?xml version="1.0" encoding="UTF-8" standalone="no"?>
<svg width="17px" height="17px" viewBox="0 0 17 17" version="1.1" xmlns="http://www.w3.org/2000/svg" xmlns:xlink="http://www.w3.org/1999/xlink" xmlns:sketch="http://www.bohemiancoding.com/sketch/ns">
    <!-- Generator: Sketch 3.3 (11970) - http://www.bohemiancoding.com/sketch -->
    <title>Untitled 3</title>
    <desc>Created with Sketch.</desc>
    <defs></defs>
    <g id="Page-1" stroke="none" stroke-width="1" fill="none" fill-rule="evenodd" sketch:type="MSPage">
        <path d="M2.85592661,9.43755258 L5.34442406,11.0411013 L11.3067971,5.0779044 C10.83916,4.62690631 9.58656065,3.52446654 8.93520897,3.52446654 C8.83500102,3.52446654 8.73479307,3.5578738 8.65128644,3.64139197 L2.85592661,9.43755258 Z M0.601247706,14.4319388 C1.41961264,14.649086 2.054263,15.2838241 2.27138022,16.1023021 L5.99577574,15.1167878 L4.776579,11.9263939 L1.58662589,10.7070287 L0.601247706,14.4319388 Z M9.53645668,2.75609943 C9.6199633,2.67258126 9.72017125,2.639174 9.8203792,2.639174 C10.9059653,2.639174 14.0625158,5.77945698 14.0625158,6.88189675 C14.0625158,6.98211855 14.0291131,7.08234034 13.9456065,7.16585851 L16.6011172,4.50998088 C16.6679225,4.44316635 16.7013252,4.34294455 16.7013252,4.22601912 C16.7013252,3.14028298 13.561476,0 12.4758899,0 C12.3589806,0 12.2587727,0.0334072658 12.1919674,0.100221797 L9.53645668,2.75609943 Z M0,16.7036329 L1.73693782,16.2526348 C1.56992457,15.6178967 1.08558614,15.1334914 0.45093578,14.9664551 L0,16.7036329 Z M5.71185321,11.5088031 L7.26507645,13.8473117 L13.0604363,8.05115105 C13.1439429,7.96763289 13.1606442,7.86741109 13.1606442,7.76718929 C13.1606442,7.14915488 12.1585647,5.96319694 11.7243303,5.49549522 L5.71185321,11.5088031 Z" id="Icon" fill="#838D8F" sketch:type="MSShapeGroup"></path>
    </g>
</svg>