<?xml version="1.0" encoding="UTF-8" standalone="no"?>
<svg width="13px" height="8px" viewBox="0 0 13 8" version="1.1" xmlns="http://www.w3.org/2000/svg" xmlns:xlink="http://www.w3.org/1999/xlink" xmlns:sketch="http://www.bohemiancoding.com/sketch/ns">
    <!-- Generator: Sketch 3.3 (11970) - http://www.bohemiancoding.com/sketch -->
    <title>Untitled 2</title>
    <desc>Created with Sketch.</desc>
    <defs></defs>
    <g id="Page-1" stroke="none" stroke-width="1" fill="none" fill-rule="evenodd" sketch:type="MSPage">
        <g id="Social-2" sketch:type="MSLayerGroup" fill="#FFFFFF">
            <g id="Twitter" transform="translate(0.546667, 0.000000)" sketch:type="MSShapeGroup">
                <path d="M9.29866667,1.40529691 C9.29866667,1.40529691 9.29866667,1.3204699 9.29866667,1.40529691 C8.872,0.981161868 8.36,0.81150785 7.848,0.896334859 L7.848,0.896334859 L7.848,0.896334859 C8.36,0.81150785 8.616,0.641853832 8.70133333,0.557026824 C8.70133333,0.472199815 8.70133333,0.387372806 8.616,0.387372806 C8.36,0.387372806 8.104,0.472199815 7.93333333,0.557026824 C8.18933333,0.387372806 8.27466667,0.302545797 8.27466667,0.217718788 C8.01866667,0.217718788 7.76266667,0.387372806 7.42133333,0.641853832 C7.50666667,0.472199815 7.592,0.387372806 7.50666667,0.302545797 C7.336,0.387372806 7.25066667,0.472199815 7.16533333,0.641853832 C6.90933333,0.896334859 6.73866667,1.06598888 6.65333333,1.3204699 L6.65333333,1.3204699 C6.312,1.91425897 6.056,2.42322102 5.88533333,3.01701008 L5.8,3.01701008 C5.62933333,2.76252906 5.37333333,2.50804803 5.032,2.33839401 C4.69066667,2.08391298 4.264,1.91425897 3.752,1.65977794 C3.24,1.40529691 2.728,1.15081589 2.13066667,0.981161868 C2.13066667,1.57495093 2.38666667,2.08391298 2.984,2.42322102 L2.984,2.42322102 C2.81333333,2.42322102 2.55733333,2.42322102 2.38666667,2.50804803 C2.38666667,3.01701008 2.81333333,3.44114513 3.58133333,3.61079914 L3.58133333,3.61079914 C3.32533333,3.61079914 3.06933333,3.69562615 2.81333333,3.86528017 C3.06933333,4.37424223 3.496,4.54389624 4.17866667,4.54389624 C4.09333333,4.62872325 3.92266667,4.71355026 3.92266667,4.71355026 C3.83733333,4.79837727 3.752,4.96803129 3.83733333,5.13768531 C4.008,5.39216633 4.17866667,5.47699334 4.60533333,5.47699334 L4.60533333,5.47699334 L4.60533333,5.47699334 C4.008,6.0707824 3.24,6.41009044 2.38666667,6.32526343 L2.38666667,6.32526343 C1.87466667,6.32526343 1.27733333,6.0707824 0.68,5.56182035 C1.27733333,6.41009044 2.13066667,7.08870651 3.15466667,7.51284156 C4.34933333,7.85214959 5.544,7.9369766 6.65333333,7.59766856 L6.65333333,7.59766856 C7.76266667,7.25836053 8.78666667,6.57974446 9.55466667,5.64664736 C9.896,5.13768531 10.152,4.62872325 10.2373333,4.1197612 C10.8346667,4.1197612 11.2613333,3.95010718 11.5173333,3.61079914 L11.5173333,3.61079914 C11.3466667,3.69562615 10.92,3.69562615 10.3226667,3.52597214 L10.3226667,3.52597214 L10.3226667,3.52597214 C10.92,3.44114513 11.3466667,3.27149111 11.432,2.93218307 C11.0053333,3.10183709 10.5786667,3.10183709 10.152,2.93218307 C10.0666667,2.33839401 9.81066667,1.82943196 9.29866667,1.40529691 L9.29866667,1.40529691 Z"></path>
            </g>
        </g>
    </g>
</svg>