<?xml version="1.0" encoding="UTF-8" standalone="no"?>
<svg width="19px" height="13px" viewBox="0 0 19 13" version="1.1" xmlns="http://www.w3.org/2000/svg" xmlns:xlink="http://www.w3.org/1999/xlink" xmlns:sketch="http://www.bohemiancoding.com/sketch/ns">
    <!-- Generator: Sketch 3.3 (11970) - http://www.bohemiancoding.com/sketch -->
    <title>Untitled 4</title>
    <desc>Created with Sketch.</desc>
    <defs></defs>
    <g id="Page-1" stroke="none" stroke-width="1" fill="none" fill-rule="evenodd" sketch:type="MSPage">
        <path d="M18.7733333,10.620923 C18.7733333,11.205561 18.2103499,11.6927593 17.5824068,11.6927593 L1.19092657,11.6927593 C0.562983468,11.6927593 0,11.205561 0,10.620923 L0,1.11081213 C0,0.5456621 0.519677047,0.0779517286 1.14762015,0.0584637965 L1.16927336,0 L17.5607536,0 L17.5824068,0.0584637965 L17.8638985,0.0584637965 L17.5824068,0.0584637965 C18.2320031,0.0584637965 18.7733333,0.526174168 18.7733333,1.11081213 L18.7733333,10.620923 Z M17.3225682,9.10086432 L17.3225682,2.59189498 L12.5805152,5.84637965 L17.3225682,9.10086432 Z M17.3225682,1.30569145 L1.45076509,1.30569145 C4.09245675,3.09858121 6.7341484,4.89147097 9.37584006,6.70384866 C12.0175317,4.89147097 14.6592234,3.09858121 17.3225682,1.30569145 L17.3225682,1.30569145 Z M17.3225682,10.3870678 L11.6061207,6.50896934 L10.090396,7.56131768 L8.63963091,7.56131768 L7.1455594,6.52845727 L1.45076509,10.3870678 L17.3225682,10.3870678 Z M6.17116494,5.84637965 L1.45076509,2.59189498 L1.45076509,9.10086432 L6.17116494,5.84637965 Z" id="Icon" fill="#FFFFFF" sketch:type="MSShapeGroup"></path>
    </g>
</svg>