<?xml version="1.0" encoding="UTF-8" standalone="no"?>
<svg width="16px" height="16px" viewBox="0 0 16 16" version="1.1" xmlns="http://www.w3.org/2000/svg" xmlns:xlink="http://www.w3.org/1999/xlink" xmlns:sketch="http://www.bohemiancoding.com/sketch/ns">
    <!-- Generator: Sketch 3.3 (11970) - http://www.bohemiancoding.com/sketch -->
    <title>Untitled</title>
    <desc>Created with Sketch.</desc>
    <defs></defs>
    <g id="Page-1" stroke="none" stroke-width="1" fill="none" fill-rule="evenodd" sketch:type="MSPage">
        <path d="M14.16792,0 L1.36708,0 C0.6214,0 0,0.616744186 0,1.35683721 L0,5.13439535 L5.173155,5.13439535 C5.949905,4.57932558 6.77326,4.10134884 7.7675,4.10134884 C8.73067,4.10134884 9.60063,4.57932558 10.361845,5.13439535 L15.535,5.13439535 L15.535,1.35683721 C15.535,0.616744186 14.9136,0 14.16792,0 L14.16792,0 Z M14.494155,3.57711628 C14.494155,3.87006977 14.26113,4.11676744 13.965965,4.11676744 L11.93088,4.11676744 C11.635715,4.11676744 11.387155,3.87006977 11.387155,3.57711628 L11.387155,1.55727907 C11.387155,1.26432558 11.635715,1.03304651 11.93088,1.03304651 L13.965965,1.03304651 C14.26113,1.03304651 14.494155,1.26432558 14.494155,1.55727907 L14.494155,3.57711628 Z M10.361845,8.21811628 C10.361845,6.79960465 9.19672,5.65862791 7.7675,5.65862791 C6.33828,5.65862791 5.173155,6.79960465 5.173155,8.21811628 C5.173155,9.63662791 6.33828,10.7930233 7.7675,10.7930233 C9.19672,10.7930233 10.361845,9.63662791 10.361845,8.21811628 L10.361845,8.21811628 Z M11.728925,7.20048837 C11.822135,7.50886047 11.853205,7.83265116 11.853205,8.15644186 C11.853205,10.4075581 10.020075,12.2269535 7.7675,12.2269535 C5.514925,12.2269535 3.681795,10.4075581 3.681795,8.15644186 C3.681795,7.83265116 3.712865,7.50886047 3.806075,7.20048837 L0,7.20048837 L0,14.0617674 C0,14.8018605 0.6214,15.4186047 1.36708,15.4186047 L14.16792,15.4186047 C14.9136,15.4186047 15.535,14.8018605 15.535,14.0617674 L15.535,7.20048837 L11.728925,7.20048837 Z" id="Instagram" fill="#838D8F" sketch:type="MSShapeGroup"></path>
    </g>
</svg>