<?xml version="1.0" encoding="UTF-8" standalone="no"?>
<svg width="16px" height="15px" viewBox="0 0 16 15" version="1.1" xmlns="http://www.w3.org/2000/svg" xmlns:xlink="http://www.w3.org/1999/xlink" xmlns:sketch="http://www.bohemiancoding.com/sketch/ns">
    <!-- Generator: Sketch 3.3 (11970) - http://www.bohemiancoding.com/sketch -->
    <title>Untitled</title>
    <desc>Created with Sketch.</desc>
    <defs></defs>
    <g id="Page-1" stroke="none" stroke-width="1" fill="none" fill-rule="evenodd" sketch:type="MSPage">
        <g id="Button" sketch:type="MSLayerGroup" fill="#838D8F">
            <path d="M15.290983,3.6 C15.090983,3.3 14.690983,3.1 14.290983,3.1 L4.99098301,3.1 L4.59098301,1.1 C4.49098301,0.5 3.79098301,-9.14823772e-14 3.19098301,-9.14823772e-14 L0.490983006,-9.14823772e-14 L0.490983006,1.6 L3.09098301,1.6 L4.59098301,8.8 C4.69098301,9.4 5.39098301,9.9 5.99098301,9.9 L12.290983,9.9 C12.890983,9.9 13.590983,9.5 13.790983,8.9 L15.390983,4.7 C15.590983,4.3 15.490983,3.9 15.290983,3.6 L15.290983,3.6 Z M12.390983,8.4 L6.19098301,8.4 L5.39098301,4.8 L13.690983,4.8 L12.390983,8.4 L12.390983,8.4 Z M6.59098301,10.9 C5.69098301,10.9 4.99098301,11.6 4.99098301,12.5 C4.99098301,13.4 5.69098301,14.1 6.59098301,14.1 C7.49098301,14.1 8.19098301,13.4 8.19098301,12.5 C8.19098301,11.6 7.49098301,10.9 6.59098301,10.9 L6.59098301,10.9 Z M12.190983,10.9 C11.290983,10.9 10.590983,11.6 10.590983,12.5 C10.590983,13.4 11.290983,14.1 12.190983,14.1 C13.090983,14.1 13.790983,13.4 13.790983,12.5 C13.790983,11.6 13.090983,10.9 12.190983,10.9 L12.190983,10.9 Z" id="Icon" sketch:type="MSShapeGroup"></path>
        </g>
    </g>
</svg>