<?xml version="1.0" encoding="UTF-8" standalone="no"?>
<svg width="27px" height="19px" viewBox="0 0 27 19" version="1.1" xmlns="http://www.w3.org/2000/svg" xmlns:xlink="http://www.w3.org/1999/xlink" xmlns:sketch="http://www.bohemiancoding.com/sketch/ns">
    <!-- Generator: Sketch 3.3 (11970) - http://www.bohemiancoding.com/sketch -->
    <title>bed_F</title>
    <desc>Created with Sketch.</desc>
    <defs></defs>
    <g id="Page-1" stroke="none" stroke-width="1" fill="none" fill-rule="evenodd" sketch:type="MSPage">
        <path d="M1.08,17.4594595 L25.92,17.4594595 L25.92,17.4594595 L25.92,18.454537 C25.92,18.7557879 26.1704883,19 26.46,19 C26.7582338,19 27,18.7648102 27,18.454537 L27,7.22113864 C27,6.91988776 26.7495117,6.67567568 26.46,6.67567568 C26.1617662,6.67567568 25.92,6.91086545 25.92,7.22113864 L25.92,10.2041016 C25.2292074,9.0151723 23.9439177,8.21621622 22.4668044,8.21621622 L4.53319558,8.21621622 C3.05926506,8.21621622 1.77184894,9.01226709 1.08,10.2025222 L1.08,7.22113864 C1.08,6.91988776 0.829511719,6.67567568 0.54,6.67567568 C0.241766235,6.67567568 0,6.91086545 0,7.22113864 L0,18.454537 C0,18.7557879 0.250488281,19 0.54,19 C0.838233765,19 1.08,18.7648102 1.08,18.454537 L1.08,17.4594595 L1.08,17.4594595 Z M4.07628439,9.24324324 C2.42148221,9.24324324 1.08,10.5954747 1.08,12.2504513 L1.08,16.4324324 L25.92,16.4324324 L25.92,12.2504513 C25.92,10.5896162 24.5844937,9.24324324 22.9237156,9.24324324 L4.07628439,9.24324324 Z M23.76,0 C23.4617662,0 23.22,0.237034566 23.22,0.539088894 L23.22,8.21621622 L24.3,8.21621622 L24.3,0.539088894 C24.3,0.241358319 24.0495117,0 23.76,0 Z M3.24,0 C2.94176624,0 2.7,0.237034566 2.7,0.539088894 L2.7,8.21621622 L3.78,8.21621622 L3.78,0.539088894 C3.78,0.241358319 3.52951172,0 3.24,0 Z M3.78,1.54054054 L3.78,8.21621622 L23.22,8.21621622 L23.22,1.54054054 L3.78,1.54054054 Z M21.9275473,5.42587679 C21.0760146,4.72605407 20.0318975,4.63987289 18.36,4.63987289 C16.4914938,4.63987289 15.5037036,4.87557321 14.7761347,5.42587679 C13.5937845,6.32015846 14.04,7.7027027 14.04,7.7027027 L22.68,7.7027027 C22.68,7.7027027 22.9274483,6.24763433 21.9275473,5.42587679 Z M12.2075473,5.42587679 C11.3560146,4.72605407 10.3118975,4.63987289 8.64,4.63987289 C6.77149382,4.63987289 5.7837036,4.87557321 5.05613467,5.42587679 C3.87378446,6.32015846 4.32,7.7027027 4.32,7.7027027 L12.96,7.7027027 C12.96,7.7027027 13.2074483,6.24763433 12.2075473,5.42587679 Z" id="bed_F" fill="#FFFFFF" sketch:type="MSShapeGroup"></path>
    </g>
</svg>