<?xml version="1.0" encoding="UTF-8" standalone="no"?>
<svg width="21px" height="28px" viewBox="0 0 21 28" version="1.1" xmlns="http://www.w3.org/2000/svg" xmlns:xlink="http://www.w3.org/1999/xlink" xmlns:sketch="http://www.bohemiancoding.com/sketch/ns">
    <!-- Generator: Sketch 3.3 (11970) - http://www.bohemiancoding.com/sketch -->
    <title>martini_F</title>
    <desc>Created with Sketch.</desc>
    <defs></defs>
    <g id="Page-1" stroke="none" stroke-width="1" fill="none" fill-rule="evenodd" sketch:type="MSPage">
        <g id="Group-+-bed_F-+-Line-4" sketch:type="MSLayerGroup" transform="translate(-40.000000, -296.000000)" fill="#FFFFFF">
            <g id="Group-+-bed_F" sketch:type="MSShapeGroup">
                <g id="Group">
                    <path d="M53.8339647,302.893049 C53.944921,302.993582 54.0458883,303.104542 54.1352447,303.224339 C55.6420365,303.068562 56.4391141,302.86464 56.4391141,302.86464 L54.5616857,304.884082 C54.4302505,305.825366 53.7137951,306.584145 52.7830889,306.797217 L52.7830888,306.797217 L50.5076245,309.244803 L44.6024868,302.888131 C44.6024868,302.888131 46.5841222,303.371657 50.2475559,303.397424 C50.6553298,302.731436 51.3995286,302.285714 52.25,302.285714 C52.6969711,302.285714 53.1145886,302.408827 53.4694427,302.622324 C53.4654468,302.550051 53.4879191,302.476764 53.5391677,302.419846 L54.688974,301.142857 L42.2385803,301.142857 L50.5,309.811175 L58.781549,301.142857 L55.4739264,301.142857 L53.9726689,302.810173 C53.9348328,302.852194 53.8862404,302.879989 53.8339647,302.893049 L53.8339647,302.893049 Z M56.5029596,300 L61,300 L51.025,310.857143 L51.025,310.857143 L51.0964812,310.857143 L51.0964812,321.577192 C51.0964812,321.577192 52.0816697,322.08208 53.2042953,322.370672 C54.9276713,322.813698 56.9804588,323.141285 56.3333334,323.428571 C55.2646635,323.902999 45.8943286,323.902999 44.6666667,323.428571 C43.9657912,323.157719 46.1967157,322.805691 47.8816373,322.370672 C49.1480445,322.043706 49.924156,321.577192 49.924156,321.577192 L49.924156,310.857143 L49.975,310.857143 L40,300 L55.7180072,300 L59.2773311,296.04697 C59.3806495,295.932224 59.5641747,295.923552 59.6838828,296.031338 C59.8000899,296.135971 59.8156565,296.320877 59.7108323,296.437296 L56.5029596,300 L56.5029596,300 Z M52.25,306.285714 C53.2164984,306.285714 54,305.518202 54,304.571429 C54,303.624655 53.2164984,302.857143 52.25,302.857143 C51.2835016,302.857143 50.5,303.624655 50.5,304.571429 C50.5,305.518202 51.2835016,306.285714 52.25,306.285714 Z" id="martini_F"></path>
                </g>
            </g>
        </g>
    </g>
</svg>