<?xml version="1.0" encoding="UTF-8" standalone="no"?>
<svg width="34px" height="33px" viewBox="0 0 34 33" version="1.1" xmlns="http://www.w3.org/2000/svg" xmlns:xlink="http://www.w3.org/1999/xlink" xmlns:sketch="http://www.bohemiancoding.com/sketch/ns">
    <!-- Generator: Sketch 3.3 (11970) - http://www.bohemiancoding.com/sketch -->
    <title>Untitled 3</title>
    <desc>Created with Sketch.</desc>
    <defs></defs>
    <g id="Page-1" stroke="none" stroke-width="1" fill="none" fill-rule="evenodd" sketch:type="MSPage">
        <ellipse id="Oval" fill="#6B3DE4" sketch:type="MSShapeGroup" cx="16.7183673" cy="16.3870968" rx="16.7183673" ry="16.3870968"></ellipse>
        <path d="M9.21836735,12.5431502 C9.21836735,16.4969238 16.7183673,27.3698012 16.7183673,27.3698012 C16.7183673,27.3698012 24.2183673,16.4969238 24.2183673,12.5431502 C24.2183673,8.60310503 20.8638219,5.40439237 16.7183673,5.40439237 C12.5729128,5.40439237 9.21836735,8.60310503 9.21836735,12.5431502 L9.21836735,12.5431502 Z M11.9456401,12.7216192 C11.9456401,10.2916958 14.2365492,8.15006847 16.7183673,8.15006847 C19.2001855,8.15006847 21.4638219,10.3191526 21.4638219,12.7353476 C21.4638219,15.1652709 19.1865492,17.7324781 16.6910946,17.7324781 C14.2092764,17.7324781 11.9456401,15.1515425 11.9456401,12.7216192 L11.9456401,12.7216192 Z" id="Shape-2" fill="#FFFFFF" sketch:type="MSShapeGroup"></path>
    </g>
</svg>