<?xml version="1.0" encoding="UTF-8" standalone="no"?>
<svg width="17px" height="22px" viewBox="0 0 17 22" version="1.1" xmlns="http://www.w3.org/2000/svg" xmlns:xlink="http://www.w3.org/1999/xlink" xmlns:sketch="http://www.bohemiancoding.com/sketch/ns">
    <!-- Generator: Sketch 3.3 (11970) - http://www.bohemiancoding.com/sketch -->
    <title>martini_F</title>
    <desc>Created with Sketch.</desc>
    <defs></defs>
    <g id="Page-1" stroke="none" stroke-width="1" fill="none" fill-rule="evenodd" sketch:type="MSPage">
        <g id="Desktop" sketch:type="MSArtboardGroup" transform="translate(-812.000000, -1184.000000)" fill="#FFFFFF">
            <g id="Group-+-martini_F" sketch:type="MSLayerGroup" transform="translate(-93.000000, 794.000000)">
                <path d="M916.208673,395.424601 C916.294667,395.501296 916.373107,395.585557 916.442817,395.676266 C917.662601,395.55387 918.307854,395.393646 918.307854,395.393646 L916.788031,396.98035 C916.681631,397.719931 916.101644,398.316114 915.348215,398.483527 L915.348215,398.483527 L913.506172,400.406631 L908.725823,395.412103 C908.725823,395.412103 910.330004,395.792016 913.295641,395.812261 C913.625743,395.288985 914.22819,394.938776 914.916667,394.938776 C915.314477,394.938776 915.683564,395.055699 915.987987,395.255372 C915.96589,395.17888 915.981743,395.091548 916.039392,395.027521 L916.927825,394.040816 L906.812184,394.040816 L913.5,400.851637 L920.204111,394.040816 L917.563263,394.040816 L916.390322,395.3435 C916.340312,395.399041 916.274184,395.425784 916.208673,395.424601 L916.208673,395.424601 Z M918.371789,393.142857 L922,393.142857 L913.925,401.673469 L913.925,401.673469 L913.982866,401.673469 L913.982866,410.096365 C913.982866,410.096365 914.780399,410.493063 915.689191,410.719814 C917.084305,411.067906 918.746086,411.325296 918.222222,411.55102 C917.357109,411.923785 909.771599,411.923785 908.777778,411.55102 C908.210402,411.338208 910.016389,411.061615 911.380373,410.719814 C912.40556,410.462912 913.033841,410.096365 913.033841,410.096365 L913.033841,401.673469 L913.075,401.673469 L905,393.142857 L917.736351,393.142857 L920.526345,390.044255 C920.618326,389.9421 920.764835,389.937368 920.861741,390.024623 C920.955814,390.109326 920.965602,390.262136 920.877275,390.360234 L918.371789,393.142857 L918.371789,393.142857 Z M914.916667,398.081633 C915.69907,398.081633 916.333333,397.478588 916.333333,396.734694 C916.333333,395.9908 915.69907,395.387755 914.916667,395.387755 C914.134263,395.387755 913.5,395.9908 913.5,396.734694 C913.5,397.478588 914.134263,398.081633 914.916667,398.081633 Z" id="martini_F" sketch:type="MSShapeGroup"></path>
            </g>
        </g>
    </g>
</svg>