<?xml version="1.0" encoding="UTF-8" standalone="no"?>
<svg width="15px" height="12px" viewBox="0 0 15 12" version="1.1" xmlns="http://www.w3.org/2000/svg" xmlns:xlink="http://www.w3.org/1999/xlink" xmlns:sketch="http://www.bohemiancoding.com/sketch/ns">
    <!-- Generator: Sketch 3.3 (11970) - http://www.bohemiancoding.com/sketch -->
    <title>sandwich_F 3</title>
    <desc>Created with Sketch.</desc>
    <defs></defs>
    <g id="Page-1" stroke="none" stroke-width="1" fill="none" fill-rule="evenodd" sketch:type="MSPage">
        <path d="M4.2216148,0 L14.0736645,0 L14.0736642,1.61753983 L0.00628035519,8.27912054 L0.00628035519,6.68691409 L4.2216148,0 Z M0.561815752,7.07496035 L0.561815752,7.57120304 L13.4440841,1.41902711 L13.4440841,1.02856926 L0.561815752,7.07496035 Z M0.00569397451,10.6920725 L0.00569397451,12 L14.0658606,5.34646026 L14.0658606,4.02583826 L0.00569397451,10.6920725 Z M7.87938731,6.41945876 C7.87938731,6.26366375 7.76712867,6.19097435 7.62980971,6.25654894 L1.66128824,9.1067261 C1.52345034,9.1725485 1.41171064,9.35111874 1.41171064,9.50799993 C1.41171064,9.66379494 1.52396928,9.73648433 1.66128824,9.67090974 L7.62980971,6.82073258 C7.76764761,6.75491018 7.87938731,6.57633994 7.87938731,6.41945876 Z M14.6282673,3.22321488 C14.6282673,3.06741987 14.5160087,2.99473047 14.3786897,3.06030507 L8.41016825,5.91048222 C8.27233034,5.97630463 8.16059064,6.15487487 8.16059064,6.31175605 C8.16059064,6.46755106 8.27284928,6.54024045 8.41016825,6.47466586 L14.3786897,3.62448871 C14.5165276,3.5586663 14.6282673,3.38009606 14.6282673,3.22321488 Z M2.91085887,6.90468227 C2.91086629,6.90467875 4.3167989,6.23902439 4.36736318,6.21509011 C4.45709087,6.17261911 5.82456919,5.52550829 5.82456923,5.52550831 C6.47684016,5.92060817 6.3530102,6.54963433 5.54834311,6.93048107 C4.74389233,7.3113299 3.56321314,7.29977935 2.9108663,6.90467876 C3.56321313,7.29977935 3.44007971,7.92881223 2.63619593,8.30966654 C1.83252847,8.69052293 0.652422742,8.67897792 0,8.28387659 C2.10817949e-09,8.28387658 1.40456352,7.618209 1.45507858,7.59427425 C1.5445982,7.5518596 2.9071884,6.90642047 2.91085887,6.90468227 Z M2.32846611,7.18051613 C2.32846611,7.18051613 0.581946337,8.00803484 0.581946338,8.00803483 C0.973412077,8.24509575 1.68158298,8.25202379 2.16381853,8.02351029 C2.64613194,7.79499755 2.71990452,7.41757678 2.32846611,7.18051613 Z M5.24160171,5.80134021 C5.24160171,5.80134021 3.49337995,6.62884248 3.49337995,6.62884248 C3.88480015,6.86590295 4.59331514,6.87283432 5.07602068,6.64432536 C5.55880408,6.41581715 5.63299459,6.03840042 5.24160171,5.80134021 Z M8.46332693,5.55132299 C9.26877734,5.17048381 9.39330383,4.54146438 8.74110881,4.14636526 C8.74110877,4.14636523 7.37229948,4.7934632 7.28248444,4.83593336 L5.82456922,5.5255083 C6.47684016,5.92060817 7.65809283,5.93216426 8.46332693,5.55132299 Z M8.15757396,4.42219167 C8.15757396,4.42219167 6.40765021,5.24967751 6.40765021,5.24967751 C6.79902487,5.48673754 7.50788395,5.49367223 7.99105947,5.26516781 C8.47431287,5.03666414 8.54892129,4.65925145 8.15757396,4.42219167 Z M11.3811474,4.17219231 C12.1873811,3.79136069 12.3126042,3.16234799 11.660485,2.76724959 C11.660485,2.76724957 10.2903447,3.41433468 10.2004423,3.456804 L8.74110879,4.14636525 C9.39330383,4.54146438 10.57513,4.55302601 11.3811474,4.17219231 Z M11.0763829,3.04307053 C11.0763829,3.04307053 9.32475712,3.87053993 9.32475712,3.87053993 C9.71608624,4.10759953 10.4252894,4.11453754 10.9089349,3.88603765 C11.3926583,3.65753852 11.4676846,3.28012986 11.0763829,3.04307053 Z M14.3018045,2.79308901 C15.1088216,2.41226496 15.2347411,1.78325898 14.5826979,1.38816132 C14.5826979,1.3881613 13.2112266,2.03523356 13.1212369,2.07770203 L11.660485,2.76724958 C12.3126042,3.16234799 13.4950038,3.17391515 14.3018045,2.79308901 Z M13.9980284,1.66397678 C13.9980284,1.66397678 12.2447007,2.49142975 12.2447007,2.49142975 C12.6359842,2.7284889 13.3455315,2.73543024 13.829647,2.50693489 C14.3138404,2.2784403 14.3892846,1.90103567 13.9980284,1.66397678 Z M0.645988933,10.3874117 L0.00448101057,10.6912273 L1.14453467,8.58386358 C1.14453467,8.58386358 1.20498459,8.59250627 1.44792505,8.58386358 C1.56616004,8.57965734 1.63896927,8.5713644 1.68288163,8.56657822 C1.72919711,8.56153012 1.74333154,8.56009621 1.74333154,8.56009621 L0.645988933,10.3874117 Z" id="sandwich_F-3" fill="#FFFFFF" sketch:type="MSShapeGroup"></path>
    </g>
</svg>