<?xml version="1.0" encoding="UTF-8" standalone="no"?>
<svg width="12px" height="12px" viewBox="0 0 12 12" version="1.1" xmlns="http://www.w3.org/2000/svg" xmlns:xlink="http://www.w3.org/1999/xlink" xmlns:sketch="http://www.bohemiancoding.com/sketch/ns">
    <!-- Generator: Sketch 3.3 (11970) - http://www.bohemiancoding.com/sketch -->
    <title>Untitled 4</title>
    <desc>Created with Sketch.</desc>
    <defs></defs>
    <g id="Page-1" stroke="none" stroke-width="1" fill="none" fill-rule="evenodd" sketch:type="MSPage">
        <path d="M8.796,5.604 L6.396,5.604 L6.396,2.4 L5.604,2.4 L5.604,6.396 L8.796,6.396 L8.796,5.604 Z M10.8,6 C10.8,8.64 8.64,10.8 6,10.8 C3.36,10.8 1.2,8.64 1.2,6 C1.2,3.36 3.36,1.2 6,1.2 C8.64,1.2 10.8,3.36 10.8,6 L10.8,6 Z M12,6 C12,2.688 9.312,0 6,0 C2.688,0 0,2.688 0,6 C0,9.312 2.688,12 6,12 C9.312,12 12,9.312 12,6 L12,6 Z" id="Icon" fill="#CDD7D8" sketch:type="MSShapeGroup"></path>
    </g>
</svg>