<?xml version="1.0" encoding="UTF-8" standalone="no"?>
<svg width="14px" height="14px" viewBox="0 0 14 14" version="1.1" xmlns="http://www.w3.org/2000/svg" xmlns:xlink="http://www.w3.org/1999/xlink" xmlns:sketch="http://www.bohemiancoding.com/sketch/ns">
    <!-- Generator: Sketch 3.3 (11970) - http://www.bohemiancoding.com/sketch -->
    <title>Untitled 3</title>
    <desc>Created with Sketch.</desc>
    <defs></defs>
    <g id="Page-1" stroke="none" stroke-width="1" fill="none" fill-rule="evenodd" sketch:type="MSPage">
        <g id="Instagram" sketch:type="MSLayerGroup" fill="#828C8E">
            <path d="M10.0437333,6.39192857 C10.3338667,6.66507143 10.3594667,6.94675 10.3594667,7.22842857 C10.3594667,9.21725 8.7808,10.8134286 6.8352,10.8134286 C4.8896,10.8134286 3.3024,9.21725 3.3024,7.22842857 C3.3024,6.94675 3.33653333,6.66507143 3.41333333,6.39192857 L0.426666667,6.39192857 L0.426666667,12.3669286 C0.426666667,12.9900357 0.913066667,13.5107143 1.49333333,13.5107143 L12.16,13.5107143 C12.7402667,13.5107143 13.2266667,12.9900357 13.2266667,12.3669286 L13.2266667,6.39192857 L10.0437333,6.39192857 L10.0437333,6.39192857 Z M8.90026667,7.28817857 C8.90026667,8.53439286 7.91893333,9.55014286 6.72426667,9.55014286 C5.5296,9.55014286 4.5568,8.53439286 4.5568,7.28817857 C4.5568,6.04196429 5.5296,5.03475 6.72426667,5.03475 C7.91893333,5.03475 8.90026667,6.04196429 8.90026667,7.28817857 L8.90026667,7.28817857 Z M12.3562667,3.33614286 C12.3562667,3.541 12.16,3.71171429 11.9125333,3.71171429 L10.2144,3.71171429 C9.96693333,3.71171429 9.7536,3.541 9.7536,3.33614286 L9.7536,1.94482143 C9.7536,1.73996429 9.96693333,1.58632143 10.2144,1.58632143 L11.9125333,1.58632143 C12.16,1.58632143 12.3562667,1.73996429 12.3562667,1.94482143 L12.3562667,3.33614286 L12.3562667,3.33614286 Z M12.0832,0.707142857 L1.49333333,0.707142857 C0.913066667,0.707142857 0.426666667,1.22782143 0.426666667,1.80825 L0.426666667,4.57382143 L4.5568,4.57382143 C5.20533333,4.10435714 5.89653333,3.70317857 6.72426667,3.70317857 C7.53493333,3.70317857 8.26026667,4.10435714 8.90026667,4.57382143 L13.2266667,4.57382143 L13.2266667,1.80825 C13.2266667,1.22782143 12.7061333,0.707142857 12.0832,0.707142857 L12.0832,0.707142857 Z" id="Image" sketch:type="MSShapeGroup"></path>
        </g>
    </g>
</svg>