<?xml version="1.0" encoding="UTF-8" standalone="no"?>
<svg width="27px" height="21px" viewBox="0 0 27 21" version="1.1" xmlns="http://www.w3.org/2000/svg" xmlns:xlink="http://www.w3.org/1999/xlink" xmlns:sketch="http://www.bohemiancoding.com/sketch/ns">
    <!-- Generator: Sketch 3.3 (11970) - http://www.bohemiancoding.com/sketch -->
    <title>Untitled</title>
    <desc>Created with Sketch.</desc>
    <defs></defs>
    <g id="Page-1" stroke="none" stroke-width="1" fill="none" fill-rule="evenodd" sketch:type="MSPage">
        <g id="Shape-+-Shape-+-Shape-+-Shape" sketch:type="MSLayerGroup" fill="#FFFFFF">
            <g id="Shape-+-Shape" sketch:type="MSShapeGroup">
                <path d="M3,6.4 L3,16.6 C3,18.3 4.71428571,20 6.42857143,20 L23.5714286,20 C25.2857143,20 27,18.3 27,16.6 L23.5714286,16.6 L20.1428571,11.5 L23.5714286,6.4 L27,6.4 C27,4.7 25.2857143,3 23.5714286,3 L6.42857143,3 C4.71428571,3 3,4.7 3,6.4 L3,6.4 Z" id="Shape"></path>
                <path d="M0,3.47293156 L0,12.1552605 C0,13.4228805 0.922407542,16.4096016 2.10587382,17 C1.87962292,16.5658836 1.74039159,16.0970378 1.74039159,15.628192 L1.74039159,5.20939734 C1.74039159,3.47293156 3.48078318,1.73646578 5.22117476,1.73646578 L22.6250906,1.73646578 C23.0949964,1.73646578 23.5649021,1.87538304 24,2.1011236 C23.4082669,0.920326864 22.1551849,0 20.8846991,0 L3.48078318,0 C1.74039159,0 0,1.73646578 0,3.47293156 L0,3.47293156 Z" id="Shape"></path>
            </g>
            <g id="Shape-+-Shape" transform="translate(0.000000, 9.000000)" sketch:type="MSShapeGroup">
                <path d="M0,0 L1.66666667,3.42857143 L1.66666667,6.85714286 L5,10.2857143 L5,12 L3.33333333,12 L0,8.57142857 L0,0 Z" id="Shape"></path>
                <path d="M27,0 L25,0 L23,3.5 L25,7 L27,7 L27,0 Z" id="Shape"></path>
            </g>
        </g>
    </g>
</svg>