<?xml version="1.0" encoding="UTF-8" standalone="no"?>
<svg width="10px" height="8px" viewBox="0 0 10 8" version="1.1" xmlns="http://www.w3.org/2000/svg" xmlns:xlink="http://www.w3.org/1999/xlink" xmlns:sketch="http://www.bohemiancoding.com/sketch/ns">
    <!-- Generator: Sketch 3.3 (11970) - http://www.bohemiancoding.com/sketch -->
    <title>Untitled 2</title>
    <desc>Created with Sketch.</desc>
    <defs></defs>
    <g id="Page-1" stroke="none" stroke-width="1" fill="none" fill-rule="evenodd" sketch:type="MSPage">
        <g id="Social-2" sketch:type="MSLayerGroup" fill="#434A54">
            <g id="RSS" transform="translate(0.386667, 0.000000)" sketch:type="MSShapeGroup">
                <path d="M2.31210576,7.01380135 C2.31210576,6.48393292 1.87697828,6.05138726 1.34394712,6.05138726 C0.821794145,6.05138726 0.386666667,6.49474656 0.386666667,7.01380135 C0.386666667,7.53285613 0.821794145,7.96540179 1.34394712,7.96540179 C1.86610009,7.96540179 2.31210576,7.53285613 2.31210576,7.01380135 L2.31210576,7.01380135 Z M5.45590179,7.96540179 C5.45590179,5.18629595 3.18236072,2.92624491 0.386666667,2.92624491 L0.386666667,4.38608649 C2.36649669,4.38608649 3.97646837,5.99731906 3.97646837,7.96540179 L5.45590179,7.96540179 Z M8.06666667,7.96540179 C8.06666667,3.75889529 4.6182814,0.341784624 0.386666667,0.330970982 L0.386666667,1.79081257 C3.81329556,1.80162621 6.57635505,4.55910476 6.58723324,7.96540179 L8.06666667,7.96540179 Z"></path>
            </g>
        </g>
    </g>
</svg>