<?xml version="1.0" encoding="UTF-8" standalone="no"?>
<svg width="27px" height="22px" viewBox="0 0 27 22" version="1.1" xmlns="http://www.w3.org/2000/svg" xmlns:xlink="http://www.w3.org/1999/xlink" xmlns:sketch="http://www.bohemiancoding.com/sketch/ns">
    <!-- Generator: Sketch 3.3 (11970) - http://www.bohemiancoding.com/sketch -->
    <title>sandwich_F</title>
    <desc>Created with Sketch.</desc>
    <defs></defs>
    <g id="Page-1" stroke="none" stroke-width="1" fill="none" fill-rule="evenodd" sketch:type="MSPage">
        <path d="M7.59890665,0 L25.332596,0 L25.3325955,2.9654897 L0.0113046393,15.1783877 L0.0113046393,12.2593425 L7.59890665,0 Z M1.01126835,12.9707606 L1.01126835,13.8805389 L24.1993514,2.60154969 L24.1993514,1.88571031 L1.01126835,12.9707606 Z M0.0102491541,19.6021329 L0.0102491541,22 L25.3185492,9.8018438 L25.3185492,7.38070348 L0.0102491541,19.6021329 Z M14.1828972,11.7690077 C14.1828972,11.4833835 13.9808316,11.3501196 13.7336575,11.4703397 L2.99031884,16.6956645 C2.74221061,16.8163389 2.54107916,17.1437177 2.54107916,17.4313332 C2.54107916,17.7169574 2.74314471,17.8502213 2.99031884,17.7300012 L13.7336575,12.5046764 C13.9817657,12.384002 14.1828972,12.0566232 14.1828972,11.7690077 Z M26.3308812,5.90922728 C26.3308812,5.62360309 26.1288156,5.4903392 25.8816415,5.61055929 L15.1383028,10.8358841 C14.8901946,10.9565585 14.6890632,11.2839373 14.6890632,11.5715528 C14.6890632,11.8571769 14.8911287,11.9904408 15.1383028,11.8702207 L25.8816415,6.64489596 C26.1297497,6.52422155 26.3308812,6.19684278 26.3308812,5.90922728 Z M5.23954597,12.6585842 C5.23955932,12.6585777 7.77023802,11.4382114 7.86125373,11.3943319 C8.02276357,11.3164684 10.4842245,10.1300985 10.4842246,10.1300986 C11.6583123,10.8544483 11.4354184,12.0076629 9.9870176,12.705882 C8.5390062,13.4041048 6.41378366,13.3829288 5.23955934,12.6585777 C6.41378363,13.3829288 6.19214347,14.5361558 4.74515268,15.2343887 C3.29855125,15.9326254 1.17436094,15.9114595 0,15.1871071 C3.79472309e-09,15.1871071 2.52821433,13.9667165 2.61914144,13.9228361 C2.78027676,13.8450759 5.23293913,12.6617709 5.23954597,12.6585842 Z M4.191239,13.1642796 C4.191239,13.1642796 1.04750341,14.6813972 1.04750341,14.6813972 C1.75214174,15.1160089 3.02684937,15.1287103 3.89487335,14.7097689 C4.76303749,14.2908288 4.89582814,13.5988908 4.191239,13.1642796 Z M9.43488308,10.6357904 C9.43488308,10.6357904 6.28808392,12.1528779 6.28808392,12.1528779 C6.99264027,12.5874887 8.26796726,12.6001962 9.13683722,12.1812632 C10.0058473,11.7623314 10.1393903,11.0704008 9.43488308,10.6357904 Z M15.2339885,10.1774255 C16.6837992,9.47922032 16.9079469,8.32601804 15.7339959,7.60166963 C15.7339958,7.60166959 13.2701391,8.78801587 13.108472,8.86587782 L10.4842246,10.1300986 C11.6583123,10.8544483 13.7845671,10.8756345 15.2339885,10.1774255 Z M14.6836331,8.1073514 C14.6836331,8.1073514 11.5337704,9.62440877 11.5337704,9.62440876 C12.2382448,10.0590188 13.5141911,10.0717324 14.383907,9.65280765 C15.2537632,9.23388426 15.3880583,8.54196098 14.6836331,8.1073514 Z M20.4860653,7.64901923 C21.937286,6.95082793 22.1626875,5.79763798 20.988873,5.07329092 C20.988873,5.07329088 18.5226205,6.25961359 18.3607962,6.337474 L15.7339958,7.60166962 C16.9079469,8.32601804 19.035234,8.34721435 20.4860653,7.64901923 Z M19.9374891,5.57896264 C19.9374891,5.57896264 16.7845628,7.09598987 16.7845628,7.09598987 C17.4889552,7.53059913 18.7655209,7.54331882 19.6360828,7.12440237 C20.5067849,6.70548729 20.6418324,6.01357142 19.9374891,5.57896264 Z M25.7432481,5.12066319 C27.1958788,4.42248576 27.422534,3.26930813 26.2488562,2.54496242 C26.2488561,2.54496238 23.7802079,3.73126152 23.6182264,3.80912039 L20.988873,5.0732909 C22.1626875,5.79763798 24.2910068,5.81884444 25.7432481,5.12066319 Z M25.1964511,3.0506241 C25.1964511,3.0506241 22.0404612,4.5676212 22.0404612,4.5676212 C22.7447716,5.00222965 24.0219567,5.01495543 24.8933646,4.5960473 C25.7649127,4.17714054 25.9007124,3.48523207 25.1964511,3.0506241 Z M1.16278008,19.043588 L0.00806581903,19.6005833 L2.06016241,15.7370832 C2.06016241,15.7370832 2.16897225,15.7529282 2.60626508,15.7370832 C2.81908807,15.7293718 2.95014469,15.7141681 3.02918693,15.7053934 C3.1125548,15.6961386 3.13799677,15.6935097 3.13799677,15.6935097 L1.16278008,19.043588 Z" id="sandwich_F" fill="#FFFFFF" sketch:type="MSShapeGroup"></path>
    </g>
</svg>