<?xml version="1.0" encoding="UTF-8" standalone="no"?>
<svg width="21px" height="16px" viewBox="0 0 21 16" version="1.1" xmlns="http://www.w3.org/2000/svg" xmlns:xlink="http://www.w3.org/1999/xlink" xmlns:sketch="http://www.bohemiancoding.com/sketch/ns">
    <!-- Generator: Sketch 3.3 (11970) - http://www.bohemiancoding.com/sketch -->
    <title>Untitled 3</title>
    <desc>Created with Sketch.</desc>
    <defs></defs>
    <g id="Page-1" stroke="none" stroke-width="1" fill="none" fill-rule="evenodd" sketch:type="MSPage">
        <path d="M13.6512442,11.2725302 C13.6512442,11.1189012 12.3977584,9.04490927 12.2019012,8.77605847 C12.1235583,8.68004032 12.0452155,8.60322581 11.9081154,8.60322581 C11.457644,8.60322581 11.0855154,9.525 10.5958725,9.525 C10.4783582,9.525 10.3608439,9.46738911 10.2629153,9.3905746 L7.65801503,6.47162298 C7.59925788,6.4140121 7.5013293,6.35640121 7.40340072,6.35640121 C7.28588643,6.35640121 7.18795784,6.43321573 7.1292007,6.52923387 C6.87458639,6.95171371 4.56347187,11.2533266 4.52430044,11.4837702 L13.3770442,11.4837702 C13.4945585,11.4837702 13.6512442,11.4261593 13.6512442,11.2725302 L13.6512442,11.2725302 Z M12.1823155,7.23976815 C12.1823155,6.77888105 11.7906012,6.39480847 11.320544,6.39480847 C10.8504868,6.39480847 10.4391867,6.77888105 10.4391867,7.23976815 C10.4391867,7.71985887 10.8504868,8.10393145 11.320544,8.10393145 C11.7906012,8.10393145 12.1823155,7.71985887 12.1823155,7.23976815 L12.1823155,7.23976815 Z M2.60490025,12.7896169 L2.60490025,5.10816532 L15.668573,5.10816532 L15.668573,12.7896169 L2.60490025,12.7896169 Z M18.2734732,3.62948589 C18.2734732,3.01496976 17.7446589,2.55408266 17.1375017,2.55408266 L1.13597154,2.55408266 C0.548400054,2.55408266 0,3.01496976 0,3.62948589 L0,14.2875 C0,14.9020161 0.548400054,15.3629032 1.13597154,15.3629032 L17.1375017,15.3629032 C17.7446589,15.3629032 18.2734732,14.9020161 18.2734732,14.2875 L18.2734732,3.62948589 Z M20.8979592,1.0561996 C20.8979592,0.460887097 20.3495591,0 19.7424019,0 L3.76045751,0 C3.15330031,0 2.60490025,0.460887097 2.60490025,1.0561996 L2.60490025,1.26743952 L18.4497447,1.26743952 C19.0373161,1.26743952 19.5857162,1.72832661 19.5857162,2.34284274 L19.5857162,12.7896169 C20.2712163,12.7896169 20.8979592,12.4631552 20.8979592,11.7334173 L20.8979592,1.0561996 Z" id="Icon" fill="#A9B7BD" sketch:type="MSShapeGroup"></path>
    </g>
</svg>