<?xml version="1.0" encoding="UTF-8" standalone="no"?>
<svg width="16px" height="11px" viewBox="0 0 16 11" version="1.1" xmlns="http://www.w3.org/2000/svg" xmlns:xlink="http://www.w3.org/1999/xlink" xmlns:sketch="http://www.bohemiancoding.com/sketch/ns">
    <!-- Generator: Sketch 3.3 (11970) - http://www.bohemiancoding.com/sketch -->
    <title>Slice 1</title>
    <desc>Created with Sketch.</desc>
    <defs></defs>
    <g id="Page-1" stroke="none" stroke-width="1" fill="none" fill-rule="evenodd" sketch:type="MSPage">
        <path d="M12.0695,1.66046512 C12.0695,1.66046512 12.0695,1.54186047 12.0695,1.66046512 C11.472,1.06744186 10.755,0.830232558 10.038,0.948837209 L10.038,0.948837209 L10.038,0.948837209 C10.755,0.830232558 11.1135,0.593023256 11.233,0.474418605 C11.233,0.355813953 11.233,0.237209302 11.1135,0.237209302 C10.755,0.237209302 10.3965,0.355813953 10.1575,0.474418605 C10.516,0.237209302 10.6355,0.118604651 10.6355,2.7533531e-14 C10.277,2.7533531e-14 9.9185,0.237209302 9.4405,0.593023256 C9.56,0.355813953 9.6795,0.237209302 9.56,0.118604651 C9.321,0.237209302 9.2015,0.355813953 9.082,0.593023256 C8.7235,0.948837209 8.4845,1.18604651 8.365,1.54186047 L8.365,1.54186047 C7.887,2.37209302 7.5285,3.08372093 7.2895,3.91395349 L7.17,3.91395349 C6.931,3.55813953 6.5725,3.20232558 6.0945,2.96511628 C5.6165,2.60930233 5.019,2.37209302 4.302,2.01627907 C3.585,1.66046512 2.868,1.30465116 2.0315,1.06744186 C2.0315,1.89767442 2.39,2.60930233 3.2265,3.08372093 L3.2265,3.08372093 C2.9875,3.08372093 2.629,3.08372093 2.39,3.20232558 C2.39,3.91395349 2.9875,4.50697674 4.063,4.74418605 L4.063,4.74418605 C3.7045,4.74418605 3.346,4.8627907 2.9875,5.1 C3.346,5.81162791 3.9435,6.04883721 4.8995,6.04883721 C4.78,6.16744186 4.541,6.28604651 4.541,6.28604651 C4.4215,6.40465116 4.302,6.64186047 4.4215,6.87906977 C4.6605,7.23488372 4.8995,7.35348837 5.497,7.35348837 L5.497,7.35348837 L5.497,7.35348837 C4.6605,8.18372093 3.585,8.65813953 2.39,8.53953488 L2.39,8.53953488 C1.673,8.53953488 0.8365,8.18372093 -1.687539e-14,7.47209302 C0.8365,8.65813953 2.0315,9.60697674 3.4655,10.2 C5.1385,10.6744186 6.8115,10.7930233 8.365,10.3186047 L8.365,10.3186047 C9.9185,9.84418605 11.3525,8.89534884 12.428,7.59069767 C12.906,6.87906977 13.2645,6.16744186 13.384,5.45581395 C14.2205,5.45581395 14.818,5.21860465 15.1765,4.74418605 L15.1765,4.74418605 C14.9375,4.8627907 14.34,4.8627907 13.5035,4.6255814 L13.5035,4.6255814 L13.5035,4.6255814 C14.34,4.50697674 14.9375,4.26976744 15.057,3.79534884 C14.4595,4.03255814 13.862,4.03255814 13.2645,3.79534884 C13.145,2.96511628 12.7865,2.25348837 12.0695,1.66046512 L12.0695,1.66046512 Z" id="Twitter" fill="#838D8F" sketch:type="MSShapeGroup"></path>
    </g>
</svg>