<?xml version="1.0" encoding="UTF-8" standalone="no"?>
<svg width="13px" height="11px" viewBox="0 0 13 11" version="1.1" xmlns="http://www.w3.org/2000/svg" xmlns:xlink="http://www.w3.org/1999/xlink" xmlns:sketch="http://www.bohemiancoding.com/sketch/ns">
    <!-- Generator: Sketch 3.3 (11970) - http://www.bohemiancoding.com/sketch -->
    <title>Untitled 3</title>
    <desc>Created with Sketch.</desc>
    <defs></defs>
    <g id="Page-1" stroke="none" stroke-width="1" fill="none" fill-rule="evenodd" sketch:type="MSPage">
        <g id="Reply" sketch:type="MSLayerGroup" fill="#B8C6C7">
            <path d="M11.1744391,4.12543098 C11.1744391,4.60941874 11.1235001,5.13161606 10.970683,5.59013078 C10.8433354,5.99769943 10.3594145,6.27790287 9.95190214,6.31611243 C9.55712457,6.36705851 9.14961223,6.37979503 8.7420999,6.39253155 C7.82519715,6.41800459 6.90829439,6.46895067 5.99139164,6.46895067 C5.30371458,6.46895067 4.60330275,6.39253155 3.91562569,6.31611243 C3.50811335,6.27790287 3.0114577,5.99769943 2.88411009,5.59013078 C2.74402773,5.13161606 2.68035392,4.60941874 2.68035392,4.12543098 C2.68035392,3.64144321 2.74402773,3.11924589 2.88411009,2.66073117 C3.0114577,2.25316252 3.50811335,1.97295908 3.91562569,1.93474952 C4.908937,1.82012084 5.92771784,1.7946478 6.93376391,1.7946478 C7.93980999,1.7946478 8.95859083,1.82012084 9.95190214,1.93474952 C10.3594145,1.97295908 10.8433354,2.25316252 10.970683,2.66073117 C11.1235001,3.11924589 11.1744391,3.64144321 11.1744391,4.12543098 L11.1744391,4.12543098 Z M12.880897,4.08722141 C12.880897,3.25934761 12.8044885,2.38052772 12.5879976,1.57812696 C12.4351804,0.954037476 11.8111772,0.419103633 11.1617044,0.329947992 C10.754192,0.279001912 10.333945,0.253528872 9.92643262,0.215319312 C8.9331213,0.138900191 7.92707523,0.0879541109 6.93376391,0.0879541109 C5.9404526,0.0879541109 4.93440652,0.138900191 3.94109521,0.215319312 C3.53358287,0.253528872 3.11333578,0.279001912 2.70582345,0.329947992 C2.05635066,0.419103633 1.4323474,0.954037476 1.26679551,1.57812696 C1.06303935,2.38052772 0.986630785,3.25934761 0.986630785,4.08722141 C0.986630785,4.91509522 1.06303935,5.79391511 1.26679551,6.58357935 C1.4323474,7.22040535 2.05635066,7.7553392 2.70582345,7.84449484 C3.66093048,7.95912352 4.64150703,8.09922524 5.60934883,8.09922524 C6.01686116,8.09922524 6.41163874,8.08648872 6.81915107,8.06101568 L9.46798124,10.2771702 L9.46798124,7.95912352 C10.0283107,7.92091396 10.6013749,7.90817744 11.1617044,7.84449484 C11.8111772,7.7553392 12.4351804,7.22040535 12.5879976,6.58357935 C12.8044885,5.79391511 12.880897,4.91509522 12.880897,4.08722141 L12.880897,4.08722141 Z" id="Icon" sketch:type="MSShapeGroup"></path>
        </g>
    </g>
</svg>