<?xml version="1.0" encoding="UTF-8" standalone="no"?>
<svg width="17px" height="17px" viewBox="0 0 17 17" version="1.1" xmlns="http://www.w3.org/2000/svg" xmlns:xlink="http://www.w3.org/1999/xlink" xmlns:sketch="http://www.bohemiancoding.com/sketch/ns">
    <!-- Generator: Sketch 3.3 (11970) - http://www.bohemiancoding.com/sketch -->
    <title>Untitled 5</title>
    <desc>Created with Sketch.</desc>
    <defs></defs>
    <g id="Page-1" stroke="none" stroke-width="1" fill="none" fill-rule="evenodd" sketch:type="MSPage">
        <path d="M2.08766565,9.3957935 C0.939449541,9.3957935 -3.55271368e-15,10.3353728 -3.55271368e-15,11.4837476 L-3.55271368e-15,14.6156788 C-3.55271368e-15,15.7640535 0.939449541,16.7036329 2.08766565,16.7036329 L5.21916412,16.7036329 C6.36738022,16.7036329 7.30682977,15.7640535 7.30682977,14.6156788 L7.30682977,11.4837476 C7.30682977,10.3353728 6.36738022,9.3957935 5.21916412,9.3957935 L2.08766565,9.3957935 L2.08766565,9.3957935 Z M11.4821611,9.3957935 C10.333945,9.3957935 9.39449541,10.3353728 9.39449541,11.4837476 L9.39449541,14.6156788 C9.39449541,15.7640535 10.333945,16.7036329 11.4821611,16.7036329 L14.6136595,16.7036329 C15.7618756,16.7036329 16.7013252,15.7640535 16.7013252,14.6156788 L16.7013252,11.4837476 C16.7013252,10.3353728 15.7618756,9.3957935 14.6136595,9.3957935 L11.4821611,9.3957935 L11.4821611,9.3957935 Z M11.4821611,-9.37028233e-14 C10.333945,-9.37028233e-14 9.39449541,0.93957935 9.39449541,2.08795411 L9.39449541,5.21988528 C9.39449541,6.36826004 10.333945,7.30783939 11.4821611,7.30783939 L14.6136595,7.30783939 C15.7618756,7.30783939 16.7013252,6.36826004 16.7013252,5.21988528 L16.7013252,2.08795411 C16.7013252,0.93957935 15.7618756,-9.37028233e-14 14.6136595,-9.37028233e-14 L11.4821611,-9.37028233e-14 L11.4821611,-9.37028233e-14 Z M2.08766565,-9.37028233e-14 C0.939449541,-9.37028233e-14 -3.55271368e-15,0.93957935 -3.55271368e-15,2.08795411 L-3.55271368e-15,5.21988528 C-3.55271368e-15,6.36826004 0.939449541,7.30783939 2.08766565,7.30783939 L5.21916412,7.30783939 C6.36738022,7.30783939 7.30682977,6.36826004 7.30682977,5.21988528 L7.30682977,2.08795411 C7.30682977,0.93957935 6.36738022,-9.37028233e-14 5.21916412,-9.37028233e-14 L2.08766565,-9.37028233e-14 L2.08766565,-9.37028233e-14 Z" id="Icon-" fill="#CDD8D8" sketch:type="MSShapeGroup"></path>
    </g>
</svg>