<?xml version="1.0" encoding="UTF-8" standalone="no"?>
<svg width="22px" height="18px" viewBox="0 0 22 18" version="1.1" xmlns="http://www.w3.org/2000/svg" xmlns:xlink="http://www.w3.org/1999/xlink" xmlns:sketch="http://www.bohemiancoding.com/sketch/ns">
    <!-- Generator: Sketch 3.3 (11970) - http://www.bohemiancoding.com/sketch -->
    <title>Untitled</title>
    <desc>Created with Sketch.</desc>
    <defs></defs>
    <g id="Page-1" stroke="none" stroke-width="1" fill="none" fill-rule="evenodd" sketch:type="MSPage">
        <g id="Shape-+-Shape-+-Shape-+-Shape" sketch:type="MSLayerGroup" fill="#FFFFFF">
            <g id="Shape-+-Shape" sketch:type="MSShapeGroup">
                <path d="M2.44444444,5.18095238 L2.44444444,13.4380952 C2.44444444,14.8142857 3.84126984,16.1904762 5.23809524,16.1904762 L19.2063492,16.1904762 C20.6031746,16.1904762 22,14.8142857 22,13.4380952 L19.2063492,13.4380952 L16.4126984,9.30952381 L19.2063492,5.18095238 L22,5.18095238 C22,3.8047619 20.6031746,2.42857143 19.2063492,2.42857143 L5.23809524,2.42857143 C3.84126984,2.42857143 2.44444444,3.8047619 2.44444444,5.18095238 L2.44444444,5.18095238 Z" id="Shape"></path>
                <path d="M0,2.81142079 L0,9.83997276 C0,10.8661413 0.75159133,13.2839632 1.71589719,13.7619048 C1.5315446,13.4104772 1.41809685,13.0309354 1.41809685,12.6513936 L1.41809685,4.21713118 C1.41809685,2.81142079 2.8361937,1.40571039 4.25429055,1.40571039 L18.435259,1.40571039 C18.8181452,1.40571039 19.2010313,1.51816723 19.5555556,1.70090958 C19.0734026,0.745026509 18.0523729,0 17.0171622,0 L2.8361937,0 C1.41809685,0 0,1.40571039 0,2.81142079 L0,2.81142079 Z" id="Shape"></path>
            </g>
            <g id="Shape-+-Shape" transform="translate(0.000000, 7.285714)" sketch:type="MSShapeGroup">
                <path d="M0,0 L1.35802469,2.7755102 L1.35802469,5.55102041 L4.07407407,8.32653061 L4.07407407,9.71428571 L2.71604938,9.71428571 L0,6.93877551 L0,0 Z" id="Shape"></path>
                <path d="M22,0 L20.3703704,0 L18.7407407,2.83333333 L20.3703704,5.66666667 L22,5.66666667 L22,0 Z" id="Shape"></path>
            </g>
        </g>
    </g>
</svg>