<?xml version="1.0" encoding="UTF-8" standalone="no"?>
<svg width="22px" height="18px" viewBox="0 0 22 18" version="1.1" xmlns="http://www.w3.org/2000/svg" xmlns:xlink="http://www.w3.org/1999/xlink" xmlns:sketch="http://www.bohemiancoding.com/sketch/ns">
    <!-- Generator: Sketch 3.3 (11970) - http://www.bohemiancoding.com/sketch -->
    <title>sandwich_F</title>
    <desc>Created with Sketch.</desc>
    <defs></defs>
    <g id="Page-1" stroke="none" stroke-width="1" fill="none" fill-rule="evenodd" sketch:type="MSPage">
        <path d="M6.19170171,0 L20.6413745,0 L20.6413741,2.42630975 L0.00921118762,12.4186808 L0.00921118762,10.0303711 L6.19170171,0 Z M0.823996436,10.6124405 L0.823996436,11.3568046 L19.71799,2.12854066 L19.71799,1.54285389 L0.823996436,10.6124405 Z M0.00835116262,16.0381088 L0.00835116262,18 L20.6299289,8.01969038 L20.6299289,6.03875739 L0.00835116262,16.0381088 Z M11.5564347,9.62918813 C11.5564347,9.39549562 11.3917887,9.28646153 11.1903876,9.38482342 L2.43655609,13.6600891 C2.23439383,13.7588228 2.07050894,14.0266781 2.07050894,14.2619999 C2.07050894,14.4956924 2.23515495,14.6047265 2.43655609,14.5063646 L11.1903876,10.2310989 C11.3925498,10.1323653 11.5564347,9.86450991 11.5564347,9.62918813 Z M21.4547921,4.83482232 C21.4547921,4.6011298 21.2901461,4.49209571 21.0887449,4.5904576 L12.3349134,8.86572333 C12.1327512,8.96445694 11.9688663,9.2323123 11.9688663,9.46763407 C11.9688663,9.70132659 12.1335123,9.81036068 12.3349134,9.71199879 L21.0887449,5.43673306 C21.2909072,5.33799945 21.4547921,5.07014409 21.4547921,4.83482232 Z M4.26925968,10.3570234 C4.26927056,10.3570181 6.33130505,9.35853658 6.405466,9.32263516 C6.53706661,9.25892866 8.54270148,8.28826243 8.54270154,8.28826247 C9.49936556,8.88091226 9.3177483,9.82445149 8.1375699,10.3957216 C6.95770876,10.9669948 5.22604594,10.949669 4.26927057,10.3570181 C5.22604592,10.949669 5.04545024,11.8932183 3.8664207,12.4644998 C2.68770842,13.0357844 0.956886688,13.0184669 0,12.4258149 C3.09199659e-09,12.4258149 2.06002649,11.4273135 2.13411524,11.3914114 C2.26541069,11.3277894 4.26387633,10.3596307 4.26925968,10.3570234 Z M3.41508363,10.7707742 C3.41508363,10.7707742 0.853521295,12.0120523 0.853521296,12.0120523 C1.42767105,12.3676436 2.46632171,12.3780357 3.17360051,12.0352654 C3.88099351,11.6924963 3.9891933,11.1263652 3.41508363,10.7707742 Z M7.68768251,8.70201031 C7.68768251,8.70201031 5.12362393,9.94326371 5.12362393,9.94326371 C5.69770689,10.2988544 6.73686221,10.3092515 7.44483033,9.96648804 C8.15291265,9.62372572 8.26172539,9.05760063 7.68768251,8.70201031 Z M12.4128795,8.32698449 C13.5942068,7.75572572 13.7768456,6.81219658 12.8202929,6.21954788 C12.8202929,6.21954785 10.8127059,7.1901948 10.6809772,7.25390004 L8.54270152,8.28826245 C9.49936556,8.88091226 11.2318695,8.89824639 12.4128795,8.32698449 Z M11.9644418,6.63328751 C11.9644418,6.63328751 9.39788698,7.87451626 9.39788698,7.87451626 C9.97190315,8.23010631 11.0115631,8.24050835 11.7202206,7.89775172 C12.4289922,7.55499621 12.5384179,6.98887717 11.9644418,6.63328751 Z M16.6923495,6.25828846 C17.8748257,5.68704104 18.0584861,4.74352198 17.1020447,4.15087439 C17.1020446,4.15087435 15.0925056,5.12150203 14.9606488,5.185206 L12.8202929,6.21954787 C13.7768456,6.81219658 15.5101906,6.82953901 16.6923495,6.25828846 Z M16.2453615,4.5646058 C16.2453615,4.5646058 13.6763104,5.8058099 13.6763104,5.8058099 C14.2502598,6.16139929 15.2904244,6.17180631 15.9997712,5.82905648 C16.7092322,5.48630778 16.8192708,4.9201948 16.2453615,4.5646058 Z M20.97598,4.18963352 C22.159605,3.61839744 22.344287,2.67488847 21.3879569,2.08224198 C21.3879569,2.08224194 19.3764657,3.05285034 19.2444808,3.11655305 L17.1020447,4.15087438 C18.0584861,4.74352198 19.7926722,4.76087273 20.97598,4.18963352 Z M20.5304416,2.49596517 C20.5304416,2.49596517 17.9588943,3.73714462 17.9588943,3.73714462 C18.5327769,4.09273335 19.5734462,4.10314535 20.2834823,3.76040233 C20.9936325,3.41766044 21.1042841,2.85155351 20.5304416,2.49596517 Z M0.947450434,15.5811175 L0.00657214884,16.0368409 L1.67865086,12.8757954 C1.67865086,12.8757954 1.76731072,12.8887594 2.1236234,12.8757954 C2.29703473,12.869486 2.4038216,12.8570466 2.46822639,12.8498673 C2.53615576,12.8422952 2.55688626,12.8401443 2.55688626,12.8401443 L0.947450434,15.5811175 Z" id="sandwich_F" fill="#FFFFFF" sketch:type="MSShapeGroup"></path>
    </g>
</svg>