<?xml version="1.0" encoding="UTF-8" standalone="no"?>
<svg width="22px" height="15px" viewBox="0 0 22 15" version="1.1" xmlns="http://www.w3.org/2000/svg" xmlns:xlink="http://www.w3.org/1999/xlink" xmlns:sketch="http://www.bohemiancoding.com/sketch/ns">
    <!-- Generator: Sketch 3.3 (11970) - http://www.bohemiancoding.com/sketch -->
    <title>bed_F</title>
    <desc>Created with Sketch.</desc>
    <defs></defs>
    <g id="Page-1" stroke="none" stroke-width="1" fill="none" fill-rule="evenodd" sketch:type="MSPage">
        <path d="M0.88,13.7837838 L21.12,13.7837838 L21.12,13.7837838 L21.12,14.5566509 C21.12,14.8015058 21.3241016,15 21.56,15 C21.8030053,15 22,14.7967808 22,14.5566509 L22,5.71361941 C22,5.46876444 21.7958984,5.27027027 21.56,5.27027027 C21.3169947,5.27027027 21.12,5.4734895 21.12,5.71361941 L21.12,8.06782728 C20.562954,7.12162858 19.5324467,6.48648649 18.3523266,6.48648649 L3.64767342,6.48648649 C2.46809476,6.48648649 1.43722693,7.12567015 0.88,8.07210136 L0.88,5.71361941 C0.88,5.46876444 0.675898438,5.27027027 0.44,5.27027027 C0.19699471,5.27027027 0,5.4734895 0,5.71361941 L0,14.5566509 C0,14.8015058 0.204101562,15 0.44,15 C0.68300529,15 0.88,14.7967808 0.88,14.5566509 L0.88,13.7837838 L0.88,13.7837838 Z M3.28127492,7.2972973 C1.9550874,7.2972973 0.88,8.36484848 0.88,9.70429475 L0.88,12.972973 L21.12,12.972973 L21.12,9.70429475 C21.12,8.37494677 20.0461,7.2972973 18.7187251,7.2972973 L3.28127492,7.2972973 Z M19.36,0 C19.1169947,0 18.92,0.187132552 18.92,0.445842485 L18.92,6.48648649 L19.8,6.48648649 L19.8,0.445842485 C19.8,0.19961048 19.5958984,0 19.36,0 Z M2.64,0 C2.39699471,0 2.2,0.187132552 2.2,0.445842485 L2.2,6.48648649 L3.08,6.48648649 L3.08,0.445842485 C3.08,0.19961048 2.87589844,0 2.64,0 Z M3.08,1.21621622 L3.08,6.48648649 L18.92,6.48648649 L18.92,1.21621622 L3.08,1.21621622 Z M17.8668904,4.28358694 C17.173049,3.73109532 16.3222868,3.66305755 14.96,3.66305755 C13.4375135,3.66305755 12.6326474,3.84913675 12.0398134,4.28358694 C11.076417,4.98959878 11.44,6.08108108 11.44,6.08108108 L18.48,6.08108108 C18.48,6.08108108 18.6816245,4.93234289 17.8668904,4.28358694 Z M9.94689043,4.28358694 C9.25304895,3.73109532 8.40228681,3.66305755 7.04,3.66305755 C5.51751348,3.66305755 4.71264737,3.84913675 4.11981343,4.28358694 C3.15641697,4.98959878 3.52,6.08108108 3.52,6.08108108 L10.56,6.08108108 C10.56,6.08108108 10.7616245,4.93234289 9.94689043,4.28358694 Z" id="bed_F" fill="#FFFFFF" sketch:type="MSShapeGroup"></path>
    </g>
</svg>